<svg xmlns="http://www.w3.org/2000/svg" xmlns:xlink="http://www.w3.org/1999/xlink" preserveAspectRatio="xMidYMid meet" version="1.0" viewBox="1.0 1.0 126.1 126.0" zoomAndPan="magnify" style="fill: rgb(35, 31, 32);" original_string_length="697" width="32.31954831186817px" height="32.31954831186817px"><g id="__id0_s4urba7a7c"><path d="m95.4 1h-62.8c-17.4 0-31.6 14.2-31.6 31.6v62.9c0 17.3 14.2 31.5 31.6 31.5h62.9c17.4 0 31.6-14.2 31.6-31.6v-62.8c-.1-17.4-14.3-31.6-31.7-31.6zm-52.4 102h-18v-52h18zm-9.1-60c-5.1 0-9.2-4.1-9.2-9.2s4.1-9.2 9.2-9.2 9.2 4.1 9.2 9.2c-.1 5.1-4.2 9.2-9.2 9.2zm69.1 60h-15v-25.2c0-6.1-.8-13.9-9.1-13.9-8.5 0-9.9 6.6-9.9 13.5v25.6h-15v-52h14v7h.4c2.2-4 7.3-7.1 15.3-7.1 16.5 0 19.4 9.5 19.4 23.6v28.5z" style="fill: inherit;"/></g></svg>